<svg id="Layer_1" data-name="Layer 1" xmlns="http://www.w3.org/2000/svg" viewBox="0 0 1000 1000"><defs><style>.cls-1{fill:#16644e;}</style></defs><path class="cls-1" d="M975,25V975H25V25H975m25-25H0V1000H1000V0Z"/><path class="cls-1" d="M342.52,84h42V434h-42V274.5H167V434H125V84h42V234.5h175.5Z"/><path class="cls-1" d="M819.52,84h42V305c0,79.5-47.5,135-127.5,135s-127.5-55.5-127.5-135V84h42V300.5c0,56.5,25,99.5,85.5,99.5s85.5-43,85.5-99.5Z"/><path class="cls-1" d="M167,718.5H315v40H167V878H330v40H125V568H327v40H167Z"/><path class="cls-1" d="M716,780.5,598,568h47l94,172,92.5-172H876L758,780.5V918H716Z"/></svg>