<?xml version="1.0" encoding="utf-8"?>
<!-- Generator: Adobe Illustrator 25.0.0, SVG Export Plug-In . SVG Version: 6.00 Build 0)  -->
<svg version="1.1" id="Layer_1" xmlns="http://www.w3.org/2000/svg" xmlns:xlink="http://www.w3.org/1999/xlink" x="0px" y="0px"
	 viewBox="0 0 512 512" style="enable-background:new 0 0 512 512;" xml:space="preserve">
<style type="text/css">
	.st0{fill:#E44D26;}
	.st1{fill:#F16529;}
	.st2{fill:#EBEBEB;}
	.st3{fill:#FFFFFF;}
</style>
<g>
	<path d="M113.2,8.3h22.3v22.1H156V8.3h22.3v66.8H156V52.8h-20.3v22.3h-22.4 M207.6,30.6H188V8.3h61.6v22.3h-19.7v44.5h-22.3
		 M259.4,8.3h23.3L297,31.8l14.3-23.5h23.3v66.8h-22.3V42l-15.6,24l-15.6-24v33.1h-21.9 M345.7,8.3H368V53h31.5v22.1h-53.8"/>
	<path class="st0" d="M112.4,464L80.5,105.6h351l-31.9,358.2l-143.9,39.9"/>
	<path class="st1" d="M256,473.2V135.1h143.5l-27.4,305.8"/>
	<path class="st2" d="M145.7,178.9H256v43.9h-62.1l4.1,45H256v43.8h-98.3 M159.6,333.7h44.1l3.1,35.1L256,382v45.9l-90.2-25.2"/>
	<path class="st3" d="M365.9,178.9H255.8v43.9h106 M357.9,267.8H255.8v43.9H310l-5.1,57.1L255.8,382v45.7l90-25"/>
</g>
</svg>
